<svg height="512pt" viewBox="0 0 512 512.002" width="512pt" xmlns="http://www.w3.org/2000/svg"><path d="m467.515625 417.734375h-1.945313l-59.863281-59.863281c-.007812-.007813-.015625-.015625-.023437-.023438l-86.484375-86.480468v-32.5h73.367187c30.421875 0 55.167969-24.75 55.167969-55.167969v-41.230469h17.132813c25.988281 0 47.132812-21.144531 47.132812-47.136719 0-25.988281-21.144531-47.132812-47.132812-47.132812h-56.230469c-30.421875 0-55.167969 24.746093-55.167969 55.167969v41.234374h-10.167969v-57.300781c0-48.140625-39.160156-87.300781-87.300781-87.300781-48.136719 0-87.300781 39.160156-87.300781 87.300781v57.300781h-49.265625c-30.417969 0-55.164063 24.746094-55.164063 55.164063v41.234375h-17.136719c-25.988281 0-47.132812 21.144531-47.132812 47.132812 0 25.988282 21.144531 47.132813 47.132812 47.132813h56.234376c30.417968 0 55.167968-24.746094 55.167968-55.164063v-41.234374h34.265625v35.730468l-36.445312 87.988282c-.015625.035156-.03125.070312-.042969.101562l-11.265625 27.195312c-6.636719 16.023438-16.511719 44.511719-16.511719 57.3125v17.671876c0 25.988281 24.746094 47.136718 55.164063 47.136718h88.367187c8.285156 0 15-6.71875 15-15v-32.136718c0-25.988282-19.953125-47.132813-44.484375-47.132813h-7.035156l14.195313-34.265625h48.246093l55.480469 55.476562v25.921876c0 25.988281 24.746094 47.132812 55.167969 47.132812h88.363281c8.285156 0 15-6.714844 15-15v-32.132812c0-25.988282-19.957031-47.132813-44.484375-47.132813zm-154.214844-273.132813h-42.300781v-42.300781h42.300781zm-114.601562-57.300781c0-31.597656 25.707031-57.300781 57.300781-57.300781 26.40625 0 48.683594 17.957031 55.296875 42.300781h-55.296875c-8.28125 0-15 6.714844-15 15v57.300781h-42.300781zm-55.164063 121.566407c-8.285156 0-15 6.714843-15 15v56.234374c0 13.875-11.289062 25.164063-25.167968 25.164063h-56.234376c-9.445312 0-17.132812-7.683594-17.132812-17.132813 0-9.445312 7.6875-17.132812 17.132812-17.132812h32.136719c8.28125 0 15-6.714844 15-15v-56.234375c0-13.875 11.289063-25.164063 25.164063-25.164063h249.035156c8.28125 0 15-6.71875 15-15v-56.234374c0-13.878907 11.289062-25.167969 25.164062-25.167969h56.234376c9.445312 0 17.132812 7.6875 17.132812 17.136719 0 9.445312-7.6875 17.132812-17.132812 17.132812h-32.132813c-8.285156 0-15 6.714844-15 15v56.230469c0 13.878906-11.292969 25.167969-25.167969 25.167969h-88.367187c-8.28125 0-15 6.714843-15 15v38.710937h-66.398438v-38.710937c0-8.285157-6.714843-15-15-15zm57.085938 232.199218c2.785156 4.164063 7.464844 6.667969 12.472656 6.667969h29.488281c7.851563 0 14.484375 7.84375 14.484375 17.132813v17.132812h-73.367187c-13.402344 0-25.164063-8.007812-25.164063-17.132812v-17.667969c.050782-4.132813 4.984375-23.515625 14.226563-45.835938l7.414062-17.898437h37.09375l-18.03125 43.527344c-1.917969 4.628906-1.398437 9.910156 1.382813 14.074218zm39.097656-87.597656h-47.117188l25.222657-60.890625h80.164062l60.886719 60.890625zm242.28125 128.53125h-73.363281c-13.410157 0-25.167969-8.007812-25.167969-17.132812v-32.132813c0-3.980469-1.582031-7.796875-4.394531-10.605469l-38.660157-38.660156h48.464844l59.871094 59.871094c2.8125 2.8125 6.628906 4.394531 10.605469 4.394531h8.160156c7.851563 0 14.484375 7.84375 14.484375 17.132813zm0 0"/></svg>