<?xml version="1.0" standalone="no"?>
<!DOCTYPE svg PUBLIC "-//W3C//DTD SVG 20010904//EN"
 "http://www.w3.org/TR/2001/REC-SVG-20010904/DTD/svg10.dtd">
<svg version="1.0" xmlns="http://www.w3.org/2000/svg"
 width="462.000000pt" height="630.000000pt" viewBox="0 0 462.000000 630.000000"
 preserveAspectRatio="xMidYMid meet">
<metadata>
Created by potrace 1.15, written by Peter Selinger 2001-2017
</metadata>
<g transform="translate(0.000000,630.000000) scale(0.100000,-0.100000)"
fill="#000000" stroke="none">
<path d="M1805 5707 c-152 -51 -249 -161 -276 -313 -38 -216 133 -428 356
-442 347 -22 545 382 315 641 -74 82 -155 120 -269 124 -52 2 -102 -2 -126
-10z"/>
<path d="M1702 4814 c-66 -24 -147 -105 -171 -170 -20 -53 -21 -73 -21 -760
l0 -706 108 58 c263 140 534 275 615 305 l87 32 0 323 0 323 83 -60 c214 -154
464 -237 793 -260 l162 -12 48 24 c66 33 89 67 89 134 0 58 -18 91 -68 129
-23 17 -50 21 -194 27 -443 21 -617 106 -929 460 -63 71 -111 115 -146 135
-53 29 -55 29 -233 31 -142 2 -189 -1 -223 -13z"/>
<path d="M2590 3509 c-175 -19 -375 -92 -635 -230 -590 -313 -788 -379 -1097
-366 l-138 6 0 -104 0 -105 28 -7 c45 -13 292 -9 367 6 146 28 316 92 525 199
113 58 282 144 375 191 279 143 447 190 703 198 l162 6 0 108 0 109 -107 -1
c-60 -1 -142 -5 -183 -10z"/>
<path d="M2532 3165 c-177 -32 -324 -93 -667 -275 -355 -188 -474 -238 -681
-285 -99 -23 -143 -28 -259 -28 -77 0 -155 3 -173 7 l-32 8 0 -226 c0 -124 4
-226 8 -226 4 0 24 16 43 36 46 48 179 136 264 174 232 104 520 118 757 35
350 -122 603 -413 679 -780 7 -33 13 -115 13 -182 l1 -123 198 0 197 0 0 415
0 415 675 0 675 0 0 110 0 110 -675 0 -675 0 0 415 0 415 -137 -1 c-76 0 -171
-7 -211 -14z"/>
<path d="M1292 2309 c-197 -33 -429 -174 -551 -336 -122 -162 -180 -324 -188
-524 -6 -145 9 -239 59 -370 58 -152 194 -323 332 -418 70 -48 202 -108 291
-132 114 -31 335 -32 450 -1 312 84 554 321 651 638 26 82 28 102 28 249 -1
145 -3 168 -27 248 -105 342 -376 585 -721 646 -70 13 -248 12 -324 0z m373
-253 c309 -99 505 -405 464 -727 -19 -155 -81 -280 -194 -394 -113 -112 -239
-174 -401 -194 -304 -38 -603 148 -710 443 -89 245 -27 521 157 706 179 178
445 243 684 166z"/>
<path d="M1398 1636 c-169 -46 -228 -247 -110 -378 48 -53 102 -78 172 -78 70
0 124 25 172 78 120 133 54 341 -122 381 -55 13 -54 13 -112 -3z"/>
</g>
</svg>
