<svg id="Capa_1" enable-background="new 0 0 512.003 512.003" height="512" viewBox="0 0 512.003 512.003" width="512" xmlns="http://www.w3.org/2000/svg"><path d="m509.863 488.421c2.71-4.526 2.856-10.137.381-14.78l-64.799-119.623c-35.147 30.976-105.428 81.683-189.443 81.683-84.011 0-154.288-50.702-189.443-81.68l-64.8 119.62c-2.476 4.644-2.329 10.254.381 14.78 2.71 4.512 7.588 7.28 12.861 7.28h482c5.274 0 10.152-2.768 12.862-7.28z"/><path d="m357.676 189.443-88.432-165.802c-5.215-9.785-21.27-9.785-26.484 0l-88.433 165.804c29.987-13.779 64.497-23.743 101.675-23.743s71.687 9.962 101.674 23.741z"/><path d="m256.001 315.701c8.276 0 15-6.724 15-15s-6.724-15-15-15-15 6.724-15 15 6.724 15 15 15z"/><path d="m64.825 290.696c-5.098 5.698-5.098 14.312 0 20.01 3.472 3.882 86.279 94.995 191.177 94.995s187.705-91.113 191.177-94.995c5.098-5.698 5.098-14.312 0-20.01-3.472-3.882-86.279-94.995-191.177-94.995s-187.706 91.113-191.177 94.995zm191.176-34.995c24.814 0 45 20.186 45 45s-20.186 45-45 45-45-20.186-45-45 20.186-45 45-45z"/></svg>