<svg id="Layer_1" enable-background="new 0 0 512 512" height="512" viewBox="0 0 512 512" width="512" xmlns="http://www.w3.org/2000/svg"><path d="m72 454h-16v-168c0-5.759-2.185-8.073-9.728-20.645-24.822-41.37-16.49-94.225 18.987-126.064 2.36-2.117 1.628-1.386 20.046-31.363 5.979-9.731 20.975-6.922 22.874 4.468 3.631 21.789 22.3 37.604 44.39 37.604 19.682 0 38.482-9.4 50.291-25.146l12.281-16.375c7.14-9.519 22.003-8.416 27.449 2.475l27.356 54.713c20.168 40.335 74.125 44.051 106.843 12.786 25.278-24.154 23.211-50.811 23.211-68.855 0-21.262 8.28-41.25 23.314-56.284 6.248-6.249 6.248-16.379 0-22.628-6.249-6.248-16.379-6.248-22.628 0-21.078 21.078-32.686 49.103-32.686 78.912 0 15.155 2.024 31.06-13.319 45.72-16.925 16.173-45.629 17.01-56.114-3.961l-27.357-54.713c-16.2-32.399-60.427-35.688-81.67-7.364l-12.281 16.375c-10.836 14.449-34.794 17.814-37.516 1.481-6.786-40.721-60.366-50.685-81.703-15.959l-15.924 25.917c-45.327 42.193-55.618 110.836-23.284 164.725l5.168 8.613v179.568c0 8.836 7.164 16 16 16h32c8.836 0 16-7.164 16-16s-7.164-16-16-16z"/><path d="m499.88 78.478-64-16c-8.571-2.141-17.259 3.069-19.403 11.642-2.143 8.573 3.069 17.259 11.642 19.403l51.88 12.97v8.007c0 8.296-17.288-1.84-27.313 8.187-8.08 8.079-17.705 11.313-28.686 11.313-8.836 0-16 7.164-16 16s7.164 16 16 16c18.387 0 33.581-5.658 46.151-16h6.349c19.575 0 35.5-15.925 35.5-35.5v-20.5c0-7.342-4.997-13.742-12.12-15.522z"/><path d="m429.06 174.821c-8.381-2.797-17.444 1.735-20.238 10.119-12.175 36.522-46.22 61.06-84.717 61.06h-4.105c-8.836 0-16 7.164-16 16 0 13.062.837 32.759-14.845 54.695-7.621 10.66.157 25.307 13.002 25.307 4.99 0 9.906-2.328 13.029-6.696 12.246-17.128 19.299-37.004 20.596-57.863 8.128-.779 16.052-2.383 23.692-4.706-2.581 27.937-14.702 53.864-34.788 73.95-3 3-4.686 7.07-4.686 11.313v112c0 8.836 7.164 16 16 16h24c8.836 0 16-7.164 16-16s-7.164-16-16-16h-8v-89.58c25.459-27.769 40-63.53 40-104.2 0-.957-.099-1.889-.26-2.799 21.752-14.606 38.724-36.218 47.439-62.361 2.794-8.383-1.736-17.445-10.119-20.239z"/><path d="m296 454h-16v-91c0-4.244-1.686-8.313-4.686-11.314-14.182-14.182-23.229-32.129-26.218-51.586-1.322-11.458-1.096-4.293-1.096-46.1 0-8.836-7.164-16-16-16s-16 7.164-16 16c0 33.32-.037 32.749.088 36.288-25.075 6.001-54.245 4.883-78.845-4.528 4.446-15.322 6.757-31.363 6.757-47.76 0-8.836-7.164-16-16-16s-16 7.164-16 16c0 28.928-8.824 48.009-9.915 51.637-8.306 20.695-19.321 34.97-33.398 49.05-10.11 10.108-2.812 27.313 11.313 27.313 7.281 0 10.795-4.169 14.059-7.432 12.836-12.836 23.365-27.362 31.397-43.071 5.621 2.162 11.492 4.003 17.546 5.515-3.547 19.64-14.15 29.507-22.315 37.675-3.001 3-4.687 7.07-4.687 11.313v100c0 8.836 7.164 16 16 16h28c8.836 0 16-7.164 16-16s-7.164-16-16-16h-12v-77.373c14.936-14.925 23.528-32.225 26.682-50.887 16.223.874 31.994-.546 46.601-3.814 5.24 17.458 14.282 33.615 26.717 47.447v100.627c0 8.836 7.164 16 16 16h32c8.836 0 16-7.164 16-16s-7.164-16-16-16z"/></svg>