<svg height="512" viewBox="0 0 60 60" width="512" xmlns="http://www.w3.org/2000/svg"><g id="019---Canoeing" transform="translate(-1 -1)"><path id="Shape" d="m56.61 30.208c-.354-.273-.488-.208-2.61-.208-1.6568542 0-3 1.3431458-3 3 .0082325 2.6576733-2.0781925 4.8503372-4.733 4.974l-11.023-11 8.969-8.956c.3973483-.4219779.9698985-.6327031 1.546-.569 1.8383169.2323954 3.6804445-.4011015 4.987-1.715l5.671-5.66c.7781018-.7805395.7781018-2.0434605 0-2.824l-5.669-5.664c-.373453-.37642581-.8817515-.58815133-1.412-.58815133s-1.038547.21172552-1.412.58815133l-5.667 5.656c-1.131699 1.11811687-1.7681339 2.64311136-1.767 4.234.1671617.8068245-.025222 1.6464499-.527 2.3l-8.963 8.95-8.962-8.952c-.501778-.6535501-.6941617-1.4931755-.527-2.3.0018823-1.59015194-.6334601-3.11475755-1.764-4.233l-5.66-5.641c-.3728617-.3797798-.8821952-.59455824-1.4144123-.59643687-.5322171-.00187864-1.0430542.20929878-1.4185877.58643687l-5.672 5.656c-.77743743.78042376-.77743743 2.04257624 0 2.823l5.669 5.66c1.3074836 1.3143921 3.1507338 1.9478939 4.99 1.715.5779962-.0599956 1.1509719.1525599 1.55.575l8.959 8.949-11.017 11.005c-2.6478153-.1380574-4.7259762-2.3215973-4.733-4.973.0063514-.7918715-.3086442-1.5524793-.873-2.108-1.054-1.081-2.09-.892-4.127-.892-1.3 0-5 4.258-5 12-.01791542 2.3857172.37516239 4.7567003 1.162 7.009-.056 0-.1-.009-.162-.009-.55228475 0-1 .4477153-1 1s.44771525 1 1 1c4.23 0 4.479 4 9.662 4 5.162 0 5.438-4 9.664-4s4.48 4 9.667 4c5.222 0 5.37-4 9.665-4 4.235 0 4.483 4 9.671 4 5.22 0 5.378-4 9.671-4 .5522847 0 1-.4477153 1-1s-.4477153-1-1-1c-.057 0-.106.008-.162.009 2.202-6.065 1.341-15.282-3.228-18.801zm-13.147 7.792h-2.83l-8.221-8.2 1.417-1.415zm-12.463-6.79 6.8 6.79h-13.6zm10.38-16.021c.8491774-.8834316 1.2630215-2.0978626 1.13-3.316-.116719-1.1902547.3077185-2.36994122 1.156-3.213l5.668-5.66 5.666 5.654-5.671 5.66c-.8718739.8775621-2.1017784 1.3005843-3.329 1.145-1.1883698-.1399666-2.3740852.2818922-3.207 1.141l-21.427 21.4h-2.829c9.123-9.112-16.724 16.727 22.84-22.811zm-22.173 1.411c-.8354524-.8551523-2.0191613-1.2762972-3.207-1.141-1.228299.1573342-2.4598661-.2658784-3.332-1.145l-5.668-5.654 5.664-5.66 5.673 5.663c.8474257.84236764 1.2717917 2.0207541 1.156 3.21-.1330215 1.2181374.2808226 2.4325684 1.13 3.316l8.961 8.951-1.417 1.414zm-11.207 15.4c.5506968.003815.99618504.4493032 1 1 .00440864 3.8641657 3.1358343 6.9955914 7 7h30c1.8570036.0015938 3.6384071-.7353923 4.9515074-2.0484926s2.0500864-3.0945038 2.0484926-4.9515074c0-.5522847.4477153-1 1-1h1v2c-.0049599 4.4162219-3.5837781 7.9950401-8 8h-32c-4.4162219-.0049599-7.99504012-3.5837781-8-8v-2zm42.329 21c-4.233 0-4.484-4-9.671-4-5.141 0-5.444 4-9.665 4s-4.482-4-9.667-4c-5.162 0-5.438 4-9.664 4-3.577 0-4.026-2.537-7.181-3.611-2.191-4.689-1.895-11.766.519-15.724-.08546289 2.7082284.92963811 5.3355975 2.81377874 7.2828568s4.47664736 3.0483529 7.18622126 3.0521432h32c2.7104545-.0015495 5.3044433-1.1020804 7.1891006-3.0500621 1.8846572-1.9479818 2.8988928-4.5769117 2.8108994-7.2859379 2.4 3.942 2.718 11.013.52 15.725-3.184 1.08-3.604 3.611-7.191 3.611z"/><path id="Shape" d="m60 55c-5.166 0-5.442 4-9.671 4s-4.484-4-9.671-4c-5.141 0-5.444 4-9.665 4s-4.482-4-9.667-4c-5.162 0-5.438 4-9.664 4s-4.479-4-9.662-4c-.55228475 0-1 .4477153-1 1s.44771525 1 1 1c4.23 0 4.479 4 9.662 4 5.162 0 5.438-4 9.664-4s4.48 4 9.667 4c5.222 0 5.37-4 9.665-4 4.235 0 4.483 4 9.671 4 5.22 0 5.378-4 9.671-4 .5522847 0 1-.4477153 1-1s-.4477153-1-1-1z"/></g></svg>