<?xml version="1.0" encoding="iso-8859-1"?>
<!-- Generator: Adobe Illustrator 19.0.0, SVG Export Plug-In . SVG Version: 6.00 Build 0)  -->
<svg version="1.1" id="Capa_1" xmlns="http://www.w3.org/2000/svg" xmlns:xlink="http://www.w3.org/1999/xlink" x="0px" y="0px"
	 viewBox="0 0 512 512" style="enable-background:new 0 0 512 512;" xml:space="preserve">
<g>
	<g>
		<path d="M509.012,298.703L263.853,57.584c-0.068,0.042-0.132,0.075-0.198,0.115c-1.019-1.257-2.329-2.288-3.886-2.94
			c-3.716-1.557-8.005-0.732-10.877,2.094L2.988,298.697c-2.226,2.19-3.302,5.295-2.908,8.393c0.394,3.098,2.212,5.834,4.917,7.397
			l246.002,142.189c1.548,0.895,3.276,1.342,5.005,1.342c1.726,0,3.453-0.446,5-1.339c0.169-0.097,0.32-0.216,0.481-0.322
			c0.003,0.007,0.005,0.012,0.008,0.019l245.512-141.884c2.703-1.563,4.523-4.299,4.917-7.397
			C512.314,303.997,511.238,300.892,509.012,298.703z M245.909,87.841l0.026,100.942l-64.661-37.374L245.909,87.841z
			 M26.383,303.745l140.095-137.784l79.462,45.929l0.025,97.843l-82.091-47.442c-4.782-2.763-10.899-1.127-13.664,3.654
			c-2.763,4.783-1.127,10.899,3.654,13.664l92.107,53.231l0.025,97.841L26.383,303.745z M265.942,207.218
			c0.074-0.697,0.071-1.395,0-2.085l-0.03-117.469l64.814,63.747l-38.452,22.225c-4.782,2.764-6.418,8.881-3.654,13.664
			c1.853,3.206,5.213,4.998,8.668,4.998c1.698,0,3.419-0.433,4.996-1.344l43.238-24.991l62.65,61.616l-142.203,82.194
			L265.942,207.218z M265.999,430.689l-0.025-97.815l156.991-90.741l62.651,61.618L265.999,430.689z"/>
	</g>
</g>
<g>
	<g>
		<path d="M132.786,244.71c-1.86-1.86-4.441-2.93-7.071-2.93c-2.64,0-5.211,1.07-7.071,2.93c-1.87,1.86-2.93,4.441-2.93,7.071
			c0,2.63,1.06,5.211,2.93,7.071c1.86,1.86,4.431,2.93,7.071,2.93c2.63,0,5.211-1.07,7.071-2.93c1.86-1.86,2.93-4.441,2.93-7.071
			C135.717,249.15,134.646,246.57,132.786,244.71z"/>
	</g>
</g>
<g>
</g>
<g>
</g>
<g>
</g>
<g>
</g>
<g>
</g>
<g>
</g>
<g>
</g>
<g>
</g>
<g>
</g>
<g>
</g>
<g>
</g>
<g>
</g>
<g>
</g>
<g>
</g>
<g>
</g>
</svg>
