<svg height="512pt" viewBox="-1 0 512 512" width="512pt" xmlns="http://www.w3.org/2000/svg"><path d="m391.265625 181.355469v-61.121094c0-35.539063-25.242187-66.503906-60.019531-73.621094l-6.027344 29.449219c20.851562 4.265625 35.988281 22.84375 35.988281 44.171875v61.121094h-11.207031c-1.085938-2.21875-2.226562-4.40625-3.464844-6.535157-4.570312-7.882812-10.167968-15.164062-16.640625-21.632812-7.75-7.757812-16.503906-14.144531-25.96875-19.0625v-27.917969h-30.058593v17.75c-6.003907-1.050781-12.144532-1.589843-18.367188-1.589843-5.109375 0-10.167969.390624-15.152344 1.121093v-17.28125h-30.058594v26.441407c-18.875 9.003906-35.015624 23.546874-45.816406 42.15625-1.242187 2.140624-2.386718 4.332031-3.476562 6.550781h-10.703125v-61.121094c0-20.769531 14.054687-38.765625 34.179687-43.761719l-7.242187-29.171875c-33.558594 8.328125-56.996094 38.320313-56.996094 72.933594v61.121094h-120.234375v50.777343c0 64.230469 52.25 116.488282 116.476562 116.488282h11.351563l-37.652344 18.824218v69.40625c0 41.4375 33.710938 75.148438 75.148438 75.148438v-30.058594c-24.863281 0-45.089844-20.226562-45.089844-45.089844v-50.828124l32.410156-16.203126c10.199219 47.414063 52.4375 83.0625 102.855469 83.0625 50.496094 0 92.792969-35.761718 102.902344-83.289062l32.863281 16.429688v50.828124c0 24.863282-20.226563 45.089844-45.089844 45.089844v30.058594c41.4375 0 75.148438-33.710938 75.148438-75.148438v-69.40625l-39.136719-19.566406h12.875c63.925781 0 115.933594-52.007812 115.933594-115.9375v-50.585937zm-135.765625-28.929688c20.082031 0 38.949219 7.816407 53.136719 22.011719 4.628906 4.632812 8.632812 9.832031 11.898437 15.46875 2.167969 3.726562 4.007813 7.648438 5.492188 11.695312 1.296875 3.496094 2.304687 7.085938 3.054687 10.730469h-147.167969c.753907-3.652343 1.765626-7.246093 3.0625-10.757812l.011719-.03125c1.46875-4 3.308594-7.914063 5.476563-11.644531 13.414062-23.113282 38.332031-37.472657 65.035156-37.472657zm-206.878906 133.132813h56.585937v-30.058594h-71.914062c-2.089844-7.4375-3.234375-15.269531-3.234375-23.367188v-20.71875h121.46875c-.066406.421876-.113282.847657-.171875 1.269532-.082031.574218-.160157 1.148437-.230469 1.722656-.113281.898438-.210938 1.800781-.300781 2.703125-.054688.558594-.113281 1.113281-.160157 1.671875-.078124.984375-.140624 1.96875-.191406 2.957031-.027344.476563-.0625.953125-.082031 1.429688-.0625 1.464843-.097656 2.933593-.097656 4.40625v90.988281h-33.816407c-27.496093 0-52.015624-12.925781-67.855468-33.003906zm131.730468 62.121094v-105.289063h59.875v126.984375l-42.460937 26.347656c-10.863281-13.035156-17.414063-29.789062-17.414063-48.042968zm42.65625 67.753906 32.277344-20.027344 32.609375 20.066406c-9.8125 4.710938-20.800781 7.355469-32.394531 7.355469-11.628906-.003906-22.652344-2.660156-32.492188-7.394531zm90.195313-19.679688-42.917969-26.414062v-126.949219h60.359375v105.289063c0 18.269531-6.558593 35.035156-17.441406 48.074218zm81.859375-77.933594h-34.359375v-90.246093c0-1.472657-.035156-2.941407-.09375-4.40625-.019531-.480469-.058594-.957031-.082031-1.4375-.054688-.980469-.113282-1.964844-.195313-2.941407-.046875-.566406-.105469-1.132812-.160156-1.695312-.089844-.890625-.183594-1.785156-.296875-2.671875-.070312-.589844-.152344-1.175781-.238281-1.761719-.058594-.414062-.101563-.832031-.164063-1.246094h121.464844v20.527344c0 8.171875-1.167969 16.066406-3.308594 23.558594h-71.335937v30.058594h55.78125c-15.75 19.648437-39.929688 32.261718-67.011719 32.261718zm0 0"/><path d="m255.375 90.175781c24.863281 0 45.089844-20.226562 45.089844-45.085937 0-24.863282-20.226563-45.089844-45.089844-45.089844-24.859375 0-45.085938 20.226562-45.085938 45.089844 0 24.859375 20.226563 45.085937 45.085938 45.085937zm0-60.117187c8.289062 0 15.03125 6.742187 15.03125 15.03125 0 8.285156-6.742188 15.027344-15.03125 15.027344-8.285156 0-15.027344-6.742188-15.027344-15.027344 0-8.289063 6.742188-15.03125 15.027344-15.03125zm0 0"/></svg>